<mxfile host="app.diagrams.net" agent="Mozilla/5.0 (Macintosh; Intel Mac OS X 10_15_7) AppleWebKit/537.36 (KHTML, like Gecko) Chrome/130.0.0.0 Safari/537.36" version="24.8.4">
  <diagram name="Page-1" id="4YmZyQZjIP5sQ3Si4yrQ">
    <mxGraphModel dx="1674" dy="795" grid="0" gridSize="10" guides="1" tooltips="1" connect="1" arrows="1" fold="1" page="1" pageScale="1" pageWidth="850" pageHeight="1100" math="0" shadow="0">
      <root>
        <mxCell id="0" />
        <mxCell id="1" parent="0" />
        <mxCell id="_e7MmEAMhu7DJjZbA9UY-112" style="edgeStyle=orthogonalEdgeStyle;rounded=0;orthogonalLoop=1;jettySize=auto;html=1;exitX=0.9;exitY=0.5;exitDx=0;exitDy=0;exitPerimeter=0;entryX=0;entryY=0.25;entryDx=0;entryDy=0;" parent="1" source="_e7MmEAMhu7DJjZbA9UY-1" target="_e7MmEAMhu7DJjZbA9UY-101" edge="1">
          <mxGeometry relative="1" as="geometry">
            <Array as="points">
              <mxPoint x="42" y="552" />
              <mxPoint x="83" y="552" />
            </Array>
          </mxGeometry>
        </mxCell>
        <mxCell id="_e7MmEAMhu7DJjZbA9UY-1" value="" style="shape=actor;whiteSpace=wrap;html=1;" parent="1" vertex="1">
          <mxGeometry x="6" y="527" width="40" height="60" as="geometry" />
        </mxCell>
        <mxCell id="_e7MmEAMhu7DJjZbA9UY-56" style="edgeStyle=orthogonalEdgeStyle;rounded=0;orthogonalLoop=1;jettySize=auto;html=1;exitX=1;exitY=0.5;exitDx=0;exitDy=0;entryX=0;entryY=0.5;entryDx=0;entryDy=0;" parent="1" source="_e7MmEAMhu7DJjZbA9UY-18" target="_e7MmEAMhu7DJjZbA9UY-55" edge="1">
          <mxGeometry relative="1" as="geometry" />
        </mxCell>
        <mxCell id="_e7MmEAMhu7DJjZbA9UY-18" value="&lt;font style=&quot;font-size: 10px;&quot;&gt;Question Condenser&lt;/font&gt;" style="rounded=1;whiteSpace=wrap;html=1;" parent="1" vertex="1">
          <mxGeometry x="324.5" y="620" width="65" height="42.5" as="geometry" />
        </mxCell>
        <mxCell id="_e7MmEAMhu7DJjZbA9UY-96" style="edgeStyle=orthogonalEdgeStyle;rounded=0;orthogonalLoop=1;jettySize=auto;html=1;exitX=0.5;exitY=1;exitDx=0;exitDy=0;entryX=0.5;entryY=0;entryDx=0;entryDy=0;strokeColor=#FF0000;" parent="1" source="_e7MmEAMhu7DJjZbA9UY-40" target="_e7MmEAMhu7DJjZbA9UY-95" edge="1">
          <mxGeometry relative="1" as="geometry" />
        </mxCell>
        <mxCell id="_e7MmEAMhu7DJjZbA9UY-40" value="Sidekick" style="shape=process;whiteSpace=wrap;html=1;backgroundOutline=1;" parent="1" vertex="1">
          <mxGeometry x="296" y="410" width="120" height="60" as="geometry" />
        </mxCell>
        <mxCell id="_e7MmEAMhu7DJjZbA9UY-41" style="edgeStyle=orthogonalEdgeStyle;rounded=0;orthogonalLoop=1;jettySize=auto;html=1;exitX=1;exitY=0.25;exitDx=0;exitDy=0;entryX=0;entryY=0.5;entryDx=0;entryDy=0;" parent="1" source="_e7MmEAMhu7DJjZbA9UY-101" target="_e7MmEAMhu7DJjZbA9UY-40" edge="1">
          <mxGeometry relative="1" as="geometry">
            <mxPoint x="267.42857142857156" y="551.4285714285716" as="sourcePoint" />
            <Array as="points">
              <mxPoint x="280" y="552" />
              <mxPoint x="280" y="440" />
            </Array>
          </mxGeometry>
        </mxCell>
        <mxCell id="_e7MmEAMhu7DJjZbA9UY-44" value="Question" style="text;html=1;align=center;verticalAlign=middle;whiteSpace=wrap;rounded=0;rotation=-90;" parent="1" vertex="1">
          <mxGeometry x="240" y="510" width="60" height="30" as="geometry" />
        </mxCell>
        <mxCell id="_e7MmEAMhu7DJjZbA9UY-45" value="&lt;font style=&quot;font-size: 10px;&quot;&gt;Response&lt;/font&gt;" style="text;html=1;align=center;verticalAlign=middle;whiteSpace=wrap;rounded=0;rotation=-90;" parent="1" vertex="1">
          <mxGeometry x="317.5" y="491" width="60" height="30" as="geometry" />
        </mxCell>
        <mxCell id="_e7MmEAMhu7DJjZbA9UY-54" value="Function Calling" style="swimlane;whiteSpace=wrap;html=1;" parent="1" vertex="1">
          <mxGeometry x="436" y="580" width="290" height="190" as="geometry" />
        </mxCell>
        <mxCell id="_e7MmEAMhu7DJjZbA9UY-65" style="edgeStyle=orthogonalEdgeStyle;rounded=0;orthogonalLoop=1;jettySize=auto;html=1;exitX=1;exitY=0.5;exitDx=0;exitDy=0;entryX=0;entryY=0.5;entryDx=0;entryDy=0;" parent="_e7MmEAMhu7DJjZbA9UY-54" source="_e7MmEAMhu7DJjZbA9UY-55" target="_e7MmEAMhu7DJjZbA9UY-61" edge="1">
          <mxGeometry relative="1" as="geometry">
            <Array as="points">
              <mxPoint x="170" y="61" />
              <mxPoint x="170" y="46" />
            </Array>
          </mxGeometry>
        </mxCell>
        <mxCell id="_e7MmEAMhu7DJjZbA9UY-66" style="edgeStyle=orthogonalEdgeStyle;rounded=0;orthogonalLoop=1;jettySize=auto;html=1;exitX=1;exitY=0.5;exitDx=0;exitDy=0;entryX=0;entryY=0.5;entryDx=0;entryDy=0;" parent="_e7MmEAMhu7DJjZbA9UY-54" source="_e7MmEAMhu7DJjZbA9UY-55" target="_e7MmEAMhu7DJjZbA9UY-62" edge="1">
          <mxGeometry relative="1" as="geometry">
            <Array as="points">
              <mxPoint x="170" y="61" />
              <mxPoint x="170" y="84" />
            </Array>
          </mxGeometry>
        </mxCell>
        <mxCell id="_e7MmEAMhu7DJjZbA9UY-67" style="edgeStyle=orthogonalEdgeStyle;rounded=0;orthogonalLoop=1;jettySize=auto;html=1;exitX=1;exitY=0.5;exitDx=0;exitDy=0;entryX=0;entryY=0.5;entryDx=0;entryDy=0;" parent="_e7MmEAMhu7DJjZbA9UY-54" source="_e7MmEAMhu7DJjZbA9UY-55" target="_e7MmEAMhu7DJjZbA9UY-63" edge="1">
          <mxGeometry relative="1" as="geometry">
            <Array as="points">
              <mxPoint x="170" y="61" />
              <mxPoint x="170" y="124" />
            </Array>
          </mxGeometry>
        </mxCell>
        <mxCell id="_e7MmEAMhu7DJjZbA9UY-68" style="edgeStyle=orthogonalEdgeStyle;rounded=0;orthogonalLoop=1;jettySize=auto;html=1;exitX=1;exitY=0.5;exitDx=0;exitDy=0;entryX=0;entryY=0.5;entryDx=0;entryDy=0;" parent="_e7MmEAMhu7DJjZbA9UY-54" source="_e7MmEAMhu7DJjZbA9UY-55" target="_e7MmEAMhu7DJjZbA9UY-64" edge="1">
          <mxGeometry relative="1" as="geometry">
            <Array as="points">
              <mxPoint x="170" y="61" />
              <mxPoint x="170" y="166" />
            </Array>
          </mxGeometry>
        </mxCell>
        <mxCell id="_e7MmEAMhu7DJjZbA9UY-55" value="" style="shape=image;verticalLabelPosition=bottom;labelBackgroundColor=default;verticalAlign=top;aspect=fixed;imageAspect=0;image=https://i.pinimg.com/originals/2a/62/c3/2a62c34e0d217a7aa14645ce114d84b3.png;" parent="_e7MmEAMhu7DJjZbA9UY-54" vertex="1">
          <mxGeometry x="52" y="29.25" width="64" height="64" as="geometry" />
        </mxCell>
        <mxCell id="_e7MmEAMhu7DJjZbA9UY-59" style="edgeStyle=orthogonalEdgeStyle;rounded=0;orthogonalLoop=1;jettySize=auto;html=1;entryX=0.25;entryY=1;entryDx=0;entryDy=0;exitX=0.5;exitY=0;exitDx=0;exitDy=0;strokeColor=#00FF00;" parent="_e7MmEAMhu7DJjZbA9UY-54" source="_e7MmEAMhu7DJjZbA9UY-57" target="_e7MmEAMhu7DJjZbA9UY-55" edge="1">
          <mxGeometry relative="1" as="geometry">
            <Array as="points">
              <mxPoint x="45" y="110" />
              <mxPoint x="68" y="110" />
            </Array>
          </mxGeometry>
        </mxCell>
        <mxCell id="_e7MmEAMhu7DJjZbA9UY-57" value="&lt;font style=&quot;font-size: 6px;&quot;&gt;Function&amp;nbsp;&lt;/font&gt;&lt;div&gt;&lt;font style=&quot;font-size: 6px;&quot;&gt;Calling Prompt&lt;/font&gt;&lt;/div&gt;" style="shape=trapezoid;perimeter=trapezoidPerimeter;whiteSpace=wrap;html=1;fixedSize=1;" parent="_e7MmEAMhu7DJjZbA9UY-54" vertex="1">
          <mxGeometry x="10" y="120" width="70" height="60" as="geometry" />
        </mxCell>
        <mxCell id="_e7MmEAMhu7DJjZbA9UY-60" style="edgeStyle=orthogonalEdgeStyle;rounded=0;orthogonalLoop=1;jettySize=auto;html=1;exitX=0.5;exitY=0;exitDx=0;exitDy=0;entryX=0.75;entryY=1;entryDx=0;entryDy=0;strokeColor=#00FF00;" parent="_e7MmEAMhu7DJjZbA9UY-54" source="_e7MmEAMhu7DJjZbA9UY-58" target="_e7MmEAMhu7DJjZbA9UY-55" edge="1">
          <mxGeometry relative="1" as="geometry">
            <Array as="points">
              <mxPoint x="125" y="110" />
              <mxPoint x="100" y="110" />
            </Array>
          </mxGeometry>
        </mxCell>
        <mxCell id="_e7MmEAMhu7DJjZbA9UY-58" value="&lt;font style=&quot;font-size: 6px;&quot;&gt;Function&amp;nbsp;&lt;/font&gt;&lt;div&gt;&lt;span style=&quot;font-size: 6px;&quot;&gt;Definitions&lt;/span&gt;&lt;/div&gt;" style="shape=trapezoid;perimeter=trapezoidPerimeter;whiteSpace=wrap;html=1;fixedSize=1;" parent="_e7MmEAMhu7DJjZbA9UY-54" vertex="1">
          <mxGeometry x="90" y="120" width="70" height="60" as="geometry" />
        </mxCell>
        <mxCell id="_e7MmEAMhu7DJjZbA9UY-61" value="&lt;font style=&quot;font-size: 8px;&quot;&gt;most_popular&lt;/font&gt;" style="rounded=1;whiteSpace=wrap;html=1;" parent="_e7MmEAMhu7DJjZbA9UY-54" vertex="1">
          <mxGeometry x="210" y="31.25" width="70" height="28.75" as="geometry" />
        </mxCell>
        <mxCell id="_e7MmEAMhu7DJjZbA9UY-62" value="&lt;span style=&quot;font-size: 8px;&quot;&gt;most_booked&lt;/span&gt;" style="rounded=1;whiteSpace=wrap;html=1;" parent="_e7MmEAMhu7DJjZbA9UY-54" vertex="1">
          <mxGeometry x="210" y="70" width="70" height="28.75" as="geometry" />
        </mxCell>
        <mxCell id="_e7MmEAMhu7DJjZbA9UY-63" value="&lt;span style=&quot;font-size: 8px;&quot;&gt;cheapest&lt;/span&gt;" style="rounded=1;whiteSpace=wrap;html=1;" parent="_e7MmEAMhu7DJjZbA9UY-54" vertex="1">
          <mxGeometry x="210" y="110" width="70" height="28.75" as="geometry" />
        </mxCell>
        <mxCell id="_e7MmEAMhu7DJjZbA9UY-64" value="&lt;span style=&quot;font-size: 8px;&quot;&gt;default&lt;/span&gt;" style="rounded=1;whiteSpace=wrap;html=1;" parent="_e7MmEAMhu7DJjZbA9UY-54" vertex="1">
          <mxGeometry x="210" y="151.25" width="70" height="28.75" as="geometry" />
        </mxCell>
        <mxCell id="_e7MmEAMhu7DJjZbA9UY-70" value="bookings table" style="shape=datastore;whiteSpace=wrap;html=1;" parent="1" vertex="1">
          <mxGeometry x="751" y="394" width="60" height="60" as="geometry" />
        </mxCell>
        <mxCell id="_e7MmEAMhu7DJjZbA9UY-97" style="edgeStyle=orthogonalEdgeStyle;rounded=0;orthogonalLoop=1;jettySize=auto;html=1;exitX=0;exitY=0.5;exitDx=0;exitDy=0;entryX=1;entryY=0.5;entryDx=0;entryDy=0;strokeColor=#FF0000;" parent="1" source="_e7MmEAMhu7DJjZbA9UY-71" target="_e7MmEAMhu7DJjZbA9UY-95" edge="1">
          <mxGeometry relative="1" as="geometry" />
        </mxCell>
        <mxCell id="_e7MmEAMhu7DJjZbA9UY-117" style="edgeStyle=orthogonalEdgeStyle;rounded=0;orthogonalLoop=1;jettySize=auto;html=1;exitX=0;exitY=0.5;exitDx=0;exitDy=0;entryX=0.5;entryY=1;entryDx=0;entryDy=0;strokeColor=#FF0000;" parent="1" source="_e7MmEAMhu7DJjZbA9UY-71" target="_e7MmEAMhu7DJjZbA9UY-24" edge="1">
          <mxGeometry relative="1" as="geometry">
            <Array as="points">
              <mxPoint x="501" y="512" />
            </Array>
          </mxGeometry>
        </mxCell>
        <mxCell id="_e7MmEAMhu7DJjZbA9UY-71" value="" style="shape=image;verticalLabelPosition=bottom;labelBackgroundColor=default;verticalAlign=top;aspect=fixed;imageAspect=0;image=https://i.pinimg.com/originals/2a/62/c3/2a62c34e0d217a7aa14645ce114d84b3.png;" parent="1" vertex="1">
          <mxGeometry x="516" y="480" width="64" height="64" as="geometry" />
        </mxCell>
        <mxCell id="_e7MmEAMhu7DJjZbA9UY-89" style="edgeStyle=orthogonalEdgeStyle;rounded=0;orthogonalLoop=1;jettySize=auto;html=1;exitX=0;exitY=0.5;exitDx=0;exitDy=0;entryX=1;entryY=0.5;entryDx=0;entryDy=0;" parent="1" source="_e7MmEAMhu7DJjZbA9UY-72" target="_e7MmEAMhu7DJjZbA9UY-71" edge="1">
          <mxGeometry relative="1" as="geometry" />
        </mxCell>
        <mxCell id="_e7MmEAMhu7DJjZbA9UY-72" value="&lt;font style=&quot;font-size: 8px;&quot;&gt;api/v1/sidekick-booking&lt;/font&gt;" style="shape=process;whiteSpace=wrap;html=1;backgroundOutline=1;" parent="1" vertex="1">
          <mxGeometry x="726" y="494" width="110" height="35" as="geometry" />
        </mxCell>
        <mxCell id="_e7MmEAMhu7DJjZbA9UY-73" style="edgeStyle=orthogonalEdgeStyle;rounded=0;orthogonalLoop=1;jettySize=auto;html=1;exitX=1;exitY=0.5;exitDx=0;exitDy=0;entryX=0.5;entryY=1;entryDx=0;entryDy=0;" parent="1" source="_e7MmEAMhu7DJjZbA9UY-61" target="_e7MmEAMhu7DJjZbA9UY-72" edge="1">
          <mxGeometry relative="1" as="geometry" />
        </mxCell>
        <mxCell id="_e7MmEAMhu7DJjZbA9UY-76" style="edgeStyle=orthogonalEdgeStyle;rounded=0;orthogonalLoop=1;jettySize=auto;html=1;exitX=1;exitY=0.5;exitDx=0;exitDy=0;entryX=0.5;entryY=1;entryDx=0;entryDy=0;" parent="1" source="_e7MmEAMhu7DJjZbA9UY-62" target="_e7MmEAMhu7DJjZbA9UY-72" edge="1">
          <mxGeometry relative="1" as="geometry" />
        </mxCell>
        <mxCell id="_e7MmEAMhu7DJjZbA9UY-77" style="edgeStyle=orthogonalEdgeStyle;rounded=0;orthogonalLoop=1;jettySize=auto;html=1;exitX=1;exitY=0.5;exitDx=0;exitDy=0;entryX=0.5;entryY=1;entryDx=0;entryDy=0;" parent="1" source="_e7MmEAMhu7DJjZbA9UY-63" target="_e7MmEAMhu7DJjZbA9UY-72" edge="1">
          <mxGeometry relative="1" as="geometry">
            <mxPoint x="786" y="590" as="targetPoint" />
          </mxGeometry>
        </mxCell>
        <mxCell id="_e7MmEAMhu7DJjZbA9UY-78" style="edgeStyle=orthogonalEdgeStyle;rounded=0;orthogonalLoop=1;jettySize=auto;html=1;exitX=1;exitY=0.5;exitDx=0;exitDy=0;entryX=0.5;entryY=1;entryDx=0;entryDy=0;" parent="1" source="_e7MmEAMhu7DJjZbA9UY-64" target="_e7MmEAMhu7DJjZbA9UY-72" edge="1">
          <mxGeometry relative="1" as="geometry" />
        </mxCell>
        <mxCell id="_e7MmEAMhu7DJjZbA9UY-79" style="edgeStyle=orthogonalEdgeStyle;rounded=0;orthogonalLoop=1;jettySize=auto;html=1;exitX=0.75;exitY=0;exitDx=0;exitDy=0;entryX=0.875;entryY=1;entryDx=0;entryDy=0;entryPerimeter=0;" parent="1" source="_e7MmEAMhu7DJjZbA9UY-72" target="_e7MmEAMhu7DJjZbA9UY-70" edge="1">
          <mxGeometry relative="1" as="geometry">
            <Array as="points">
              <mxPoint x="804" y="494" />
              <mxPoint x="804" y="474" />
              <mxPoint x="803" y="474" />
            </Array>
          </mxGeometry>
        </mxCell>
        <mxCell id="_e7MmEAMhu7DJjZbA9UY-81" value="&lt;font style=&quot;font-size: 8px;&quot;&gt;query&lt;/font&gt;" style="text;html=1;align=center;verticalAlign=middle;whiteSpace=wrap;rounded=0;rotation=-90;" parent="1" vertex="1">
          <mxGeometry x="767" y="461" width="60" height="30" as="geometry" />
        </mxCell>
        <mxCell id="_e7MmEAMhu7DJjZbA9UY-82" value="&lt;font style=&quot;font-size: 8px;&quot;&gt;data&lt;/font&gt;" style="text;html=1;align=center;verticalAlign=middle;whiteSpace=wrap;rounded=0;rotation=-90;" parent="1" vertex="1">
          <mxGeometry x="723" y="461" width="60" height="30" as="geometry" />
        </mxCell>
        <mxCell id="_e7MmEAMhu7DJjZbA9UY-90" value="Data and users initial question" style="text;html=1;align=center;verticalAlign=middle;whiteSpace=wrap;rounded=0;" parent="1" vertex="1">
          <mxGeometry x="616" y="480" width="90" height="30" as="geometry" />
        </mxCell>
        <mxCell id="_e7MmEAMhu7DJjZbA9UY-91" value="&lt;font style=&quot;font-size: 10px;&quot;&gt;Response&lt;/font&gt;" style="text;html=1;align=center;verticalAlign=middle;whiteSpace=wrap;rounded=0;rotation=0;" parent="1" vertex="1">
          <mxGeometry x="456" y="506" width="60" height="30" as="geometry" />
        </mxCell>
        <mxCell id="_e7MmEAMhu7DJjZbA9UY-92" value="" style="shape=image;verticalLabelPosition=bottom;labelBackgroundColor=default;verticalAlign=top;aspect=fixed;imageAspect=0;image=https://i.pinimg.com/originals/2a/62/c3/2a62c34e0d217a7aa14645ce114d84b3.png;" parent="1" vertex="1">
          <mxGeometry x="377.5" y="622" width="11" height="11" as="geometry" />
        </mxCell>
        <mxCell id="_e7MmEAMhu7DJjZbA9UY-99" value="" style="edgeStyle=orthogonalEdgeStyle;rounded=0;orthogonalLoop=1;jettySize=auto;html=1;entryX=1;entryY=0.75;entryDx=0;entryDy=0;strokeColor=#FF0000;" parent="1" source="_e7MmEAMhu7DJjZbA9UY-95" target="_e7MmEAMhu7DJjZbA9UY-101" edge="1">
          <mxGeometry relative="1" as="geometry">
            <mxPoint x="267.42857142857156" y="568.5714285714287" as="targetPoint" />
            <Array as="points">
              <mxPoint x="280" y="570" />
              <mxPoint x="280" y="570" />
            </Array>
          </mxGeometry>
        </mxCell>
        <mxCell id="_e7MmEAMhu7DJjZbA9UY-95" value="&lt;font style=&quot;font-size: 10px;&quot;&gt;Answer Condenser&lt;/font&gt;" style="rounded=1;whiteSpace=wrap;html=1;" parent="1" vertex="1">
          <mxGeometry x="323.5" y="546.75" width="65" height="42.5" as="geometry" />
        </mxCell>
        <mxCell id="_e7MmEAMhu7DJjZbA9UY-24" value="response table" style="shape=datastore;whiteSpace=wrap;html=1;" parent="1" vertex="1">
          <mxGeometry x="471" y="394" width="60" height="60" as="geometry" />
        </mxCell>
        <mxCell id="_e7MmEAMhu7DJjZbA9UY-109" style="edgeStyle=orthogonalEdgeStyle;rounded=0;orthogonalLoop=1;jettySize=auto;html=1;exitX=1;exitY=0.25;exitDx=0;exitDy=0;entryX=0;entryY=0.5;entryDx=0;entryDy=0;" parent="1" source="_e7MmEAMhu7DJjZbA9UY-101" target="_e7MmEAMhu7DJjZbA9UY-18" edge="1">
          <mxGeometry relative="1" as="geometry">
            <Array as="points">
              <mxPoint x="280" y="552" />
              <mxPoint x="280" y="641" />
            </Array>
          </mxGeometry>
        </mxCell>
        <mxCell id="_e7MmEAMhu7DJjZbA9UY-101" value="&lt;font style=&quot;font-size: 10px;&quot;&gt;/app/sidekick&lt;/font&gt;" style="shape=hexagon;perimeter=hexagonPerimeter2;whiteSpace=wrap;html=1;fixedSize=1;" parent="1" vertex="1">
          <mxGeometry x="120" y="541" width="120" height="40" as="geometry" />
        </mxCell>
        <mxCell id="_e7MmEAMhu7DJjZbA9UY-106" value="" style="shape=image;verticalLabelPosition=bottom;labelBackgroundColor=default;verticalAlign=top;aspect=fixed;imageAspect=0;image=https://i.pinimg.com/originals/2a/62/c3/2a62c34e0d217a7aa14645ce114d84b3.png;" parent="1" vertex="1">
          <mxGeometry x="375.5" y="550" width="11" height="11" as="geometry" />
        </mxCell>
        <mxCell id="_e7MmEAMhu7DJjZbA9UY-111" style="edgeStyle=orthogonalEdgeStyle;rounded=0;orthogonalLoop=1;jettySize=auto;html=1;exitX=0;exitY=0.75;exitDx=0;exitDy=0;entryX=0.948;entryY=0.724;entryDx=0;entryDy=0;entryPerimeter=0;strokeColor=#FF0000;" parent="1" source="_e7MmEAMhu7DJjZbA9UY-101" target="_e7MmEAMhu7DJjZbA9UY-1" edge="1">
          <mxGeometry relative="1" as="geometry" />
        </mxCell>
        <mxCell id="_e7MmEAMhu7DJjZbA9UY-113" value="&lt;font style=&quot;font-size: 8px;&quot;&gt;write&lt;/font&gt;" style="text;html=1;align=center;verticalAlign=middle;whiteSpace=wrap;rounded=0;rotation=90;" parent="1" vertex="1">
          <mxGeometry x="478" y="470" width="60" height="30" as="geometry" />
        </mxCell>
        <mxCell id="_e7MmEAMhu7DJjZbA9UY-114" value="&lt;font style=&quot;font-size: 10px;&quot;&gt;Question&lt;/font&gt;" style="text;html=1;align=center;verticalAlign=middle;whiteSpace=wrap;rounded=0;rotation=0;" parent="1" vertex="1">
          <mxGeometry x="56" y="529" width="60" height="30" as="geometry" />
        </mxCell>
        <mxCell id="_e7MmEAMhu7DJjZbA9UY-115" value="&lt;font style=&quot;font-size: 10px;&quot;&gt;Response&lt;/font&gt;" style="text;html=1;align=center;verticalAlign=middle;whiteSpace=wrap;rounded=0;rotation=0;" parent="1" vertex="1">
          <mxGeometry x="56" y="559.25" width="60" height="30" as="geometry" />
        </mxCell>
        <mxCell id="_e7MmEAMhu7DJjZbA9UY-116" style="edgeStyle=orthogonalEdgeStyle;rounded=0;orthogonalLoop=1;jettySize=auto;html=1;exitX=0.15;exitY=0.95;exitDx=0;exitDy=0;exitPerimeter=0;entryX=0.314;entryY=0.03;entryDx=0;entryDy=0;entryPerimeter=0;" parent="1" source="_e7MmEAMhu7DJjZbA9UY-70" target="_e7MmEAMhu7DJjZbA9UY-72" edge="1">
          <mxGeometry relative="1" as="geometry" />
        </mxCell>
      </root>
    </mxGraphModel>
  </diagram>
</mxfile>
